<svg width="656" height="128" viewBox="0 0 656 128" fill="none" xmlns="http://www.w3.org/2000/svg">
<g clip-path="url(#clip0_50_54)">
<rect width="128" height="128" rx="8" fill="#FCFDFD"/>
<rect y="64" width="128" height="64" fill="#E25454"/>
<path d="M68.4775 120.16V96.8H73.2775V105.856H75.5495L79.3895 96.8H84.6055L79.8055 107.968L84.7975 120.16H79.5175L75.5495 110.272H73.2775V120.16H68.4775ZM87.697 120.16V96.8H95.665C97.3077 96.8 98.737 97.1094 99.953 97.728C101.19 98.3467 102.14 99.2107 102.801 100.32C103.484 101.429 103.825 102.731 103.825 104.224C103.825 105.696 103.484 106.997 102.801 108.128C102.118 109.237 101.169 110.101 99.953 110.72C98.737 111.339 97.3077 111.648 95.665 111.648H92.497V120.16H87.697ZM92.497 107.328H95.665C96.689 107.328 97.4997 107.051 98.097 106.496C98.7157 105.92 99.025 105.163 99.025 104.224C99.025 103.285 98.7157 102.539 98.097 101.984C97.4997 101.408 96.689 101.12 95.665 101.12H92.497V107.328ZM107.813 120.16V96.8H112.613V115.68H122.053V120.16H107.813Z" fill="#FCFDFD"/>
</g>
<path d="M149.045 92.019V35.3634H160.686V57.3272H166.197L175.51 35.3634H188.16L176.519 62.4494L188.626 92.019H175.82L166.197 68.0374H160.686V92.019H149.045ZM213.819 92.7951C210.042 92.7951 206.757 92.0967 203.963 90.6997C201.169 89.2509 198.996 87.2589 197.443 84.7237C195.943 82.1366 195.193 79.1357 195.193 75.7208V51.6616C195.193 48.2467 195.943 45.2717 197.443 42.7364C198.996 40.1494 201.169 38.1574 203.963 36.7604C206.757 35.3117 210.042 34.5873 213.819 34.5873C217.648 34.5873 220.933 35.3117 223.676 36.7604C226.47 38.1574 228.617 40.1494 230.117 42.7364C231.67 45.2717 232.446 48.2467 232.446 51.6616V75.7208C232.446 79.1357 231.67 82.1366 230.117 84.7237C228.617 87.2589 226.47 89.2509 223.676 90.6997C220.933 92.0967 217.648 92.7951 213.819 92.7951ZM213.819 82.7058C216.147 82.7058 217.881 82.1108 219.019 80.9207C220.209 79.679 220.804 77.9457 220.804 75.7208V51.6616C220.804 49.385 220.235 47.6517 219.097 46.4617C217.958 45.2717 216.199 44.6766 213.819 44.6766C211.439 44.6766 209.68 45.2717 208.542 46.4617C207.403 47.6517 206.834 49.385 206.834 51.6616V75.7208C206.834 77.9457 207.403 79.679 208.542 80.9207C209.732 82.1108 211.491 82.7058 213.819 82.7058ZM260.666 92.7951C256.888 92.7951 253.577 92.0967 250.731 90.6997C247.886 89.2509 245.661 87.2589 244.057 84.7237C242.505 82.1366 241.729 79.1357 241.729 75.7208V51.6616C241.729 48.195 242.505 45.1941 244.057 42.6588C245.661 40.1235 247.886 38.1574 250.731 36.7604C253.577 35.3117 256.888 34.5873 260.666 34.5873C264.494 34.5873 267.806 35.3117 270.6 36.7604C273.445 38.1574 275.644 40.1235 277.197 42.6588C278.801 45.1941 279.602 48.195 279.602 51.6616H267.961C267.961 49.385 267.314 47.6517 266.021 46.4617C264.779 45.2717 262.994 44.6766 260.666 44.6766C258.337 44.6766 256.526 45.2717 255.233 46.4617C253.991 47.6517 253.37 49.385 253.37 51.6616V75.7208C253.37 77.9457 253.991 79.679 255.233 80.9207C256.526 82.1108 258.337 82.7058 260.666 82.7058C262.994 82.7058 264.779 82.1108 266.021 80.9207C267.314 79.679 267.961 77.9457 267.961 75.7208H279.602C279.602 79.1357 278.801 82.1366 277.197 84.7237C275.644 87.2589 273.445 89.2509 270.6 90.6997C267.806 92.0967 264.494 92.7951 260.666 92.7951ZM288.73 92.019V35.3634H300.372V57.0943H313.41V35.3634H325.052V92.019H313.41V67.9598H300.372V92.019H288.73ZM332.084 92.019L345.976 35.3634H360.722L374.77 92.019H362.896L360.179 79.2133H346.675L343.959 92.019H332.084ZM348.615 69.9001H358.161L355.445 56.2406C355.083 54.2745 354.695 52.3342 354.281 50.4198C353.919 48.4537 353.634 46.9274 353.427 45.8408C353.22 46.9274 352.936 48.4278 352.573 50.3422C352.263 52.2566 351.901 54.1969 351.487 56.163L348.615 69.9001ZM381.336 92.019V35.3634H394.918L409.587 79.2133C409.431 77.2989 409.25 75.1 409.043 72.6164C408.836 70.0811 408.655 67.5717 408.5 65.0882C408.397 62.5529 408.345 60.4057 408.345 58.6465V35.3634H418.59V92.019H405.008L390.495 48.1691C390.65 49.8248 390.805 51.7909 390.96 54.0675C391.115 56.3441 391.245 58.6465 391.348 60.9749C391.503 63.3032 391.581 65.3728 391.581 67.1837V92.019H381.336ZM446.499 92.7951C442.722 92.7951 439.436 92.0967 436.642 90.6997C433.848 89.2509 431.675 87.2589 430.123 84.7237C428.623 82.1366 427.872 79.1357 427.872 75.7208V51.6616C427.872 48.2467 428.623 45.2717 430.123 42.7364C431.675 40.1494 433.848 38.1574 436.642 36.7604C439.436 35.3117 442.722 34.5873 446.499 34.5873C450.328 34.5873 453.613 35.3117 456.355 36.7604C459.149 38.1574 461.297 40.1494 462.797 42.7364C464.349 45.2717 465.125 48.2467 465.125 51.6616V75.7208C465.125 79.1357 464.349 82.1366 462.797 84.7237C461.297 87.2589 459.149 89.2509 456.355 90.6997C453.613 92.0967 450.328 92.7951 446.499 92.7951ZM446.499 82.7058C448.827 82.7058 450.561 82.1108 451.699 80.9207C452.889 79.679 453.484 77.9457 453.484 75.7208V51.6616C453.484 49.385 452.915 47.6517 451.776 46.4617C450.638 45.2717 448.879 44.6766 446.499 44.6766C444.119 44.6766 442.36 45.2717 441.221 46.4617C440.083 47.6517 439.514 49.385 439.514 51.6616V75.7208C439.514 77.9457 440.083 79.679 441.221 80.9207C442.411 82.1108 444.171 82.7058 446.499 82.7058ZM475.805 92.019L470.528 35.3634H480.074L482.946 73.2373C482.997 73.9617 483.049 74.9965 483.101 76.3417C483.153 77.6352 483.204 79.0064 483.256 80.4551C483.36 81.8521 483.411 83.1197 483.411 84.258C483.515 83.1197 483.618 81.8521 483.722 80.4551C483.877 79.0064 484.032 77.6352 484.187 76.3417C484.343 74.9965 484.446 73.9617 484.498 73.2373L488.689 35.3634H497.536L501.572 73.2373C501.676 73.9617 501.779 74.9965 501.883 76.3417C502.038 77.6352 502.193 79.0064 502.348 80.4551C502.555 81.8521 502.71 83.1197 502.814 84.258C502.866 83.1197 502.917 81.8521 502.969 80.4551C503.021 79.0064 503.073 77.6352 503.124 76.3417C503.176 74.9965 503.228 73.9617 503.28 73.2373L505.918 35.3634H515.542L509.876 92.019H497.769L493.966 54.378C493.863 53.4984 493.759 52.3601 493.656 50.9631C493.552 49.5144 493.449 48.0139 493.345 46.4617C493.242 44.9095 493.138 43.5384 493.035 42.3483C492.983 43.5384 492.906 44.9095 492.802 46.4617C492.699 48.0139 492.595 49.5144 492.492 50.9631C492.388 52.3601 492.285 53.4984 492.181 54.378L487.99 92.019H475.805ZM539.571 92.7951C535.587 92.7951 532.12 92.1225 529.171 90.7773C526.222 89.432 523.945 87.5435 522.341 85.1117C520.737 82.6799 519.935 79.8083 519.935 76.4969H531.577C531.577 78.4113 532.301 79.9377 533.75 81.076C535.251 82.1625 537.268 82.7058 539.804 82.7058C542.236 82.7058 544.124 82.1625 545.469 81.076C546.866 79.9894 547.565 78.4889 547.565 76.5746C547.565 74.9189 547.047 73.496 546.013 72.306C544.978 71.116 543.529 70.314 541.666 69.9001L535.923 68.5807C531.111 67.4424 527.36 65.3469 524.67 62.2942C522.031 59.1898 520.712 55.4128 520.712 50.9631C520.712 47.6517 521.462 44.7801 522.962 42.3483C524.514 39.8648 526.688 37.9504 529.482 36.6052C532.276 35.2599 535.587 34.5873 539.416 34.5873C545.211 34.5873 549.79 36.036 553.153 38.9335C556.568 41.7792 558.275 45.6338 558.275 50.4974H546.633C546.633 48.6865 545.987 47.2637 544.693 46.2289C543.451 45.1941 541.641 44.6766 539.26 44.6766C537.036 44.6766 535.328 45.1941 534.138 46.2289C532.948 47.2119 532.353 48.6348 532.353 50.4974C532.353 52.1531 532.819 53.576 533.75 54.766C534.733 55.9043 536.104 56.6804 537.863 57.0943L543.917 58.4913C548.936 59.6296 552.739 61.6992 555.326 64.7002C557.913 67.6494 559.206 71.4264 559.206 76.0313C559.206 79.3427 558.379 82.266 556.723 84.8013C555.119 87.3365 552.842 89.3027 549.893 90.6997C546.996 92.0967 543.555 92.7951 539.571 92.7951ZM567.868 92.019V35.3634H579.51V57.3272H585.02L594.334 35.3634H606.984L595.343 62.4494L607.45 92.019H594.644L585.02 68.0374H579.51V92.019H567.868ZM615.569 92.019V81.9297H626.822V45.4528H615.569V35.3634H649.717V45.4528H638.464V81.9297H649.717V92.019H615.569Z" fill="#E25454"/>
<defs>
<clipPath id="clip0_50_54">
<rect width="128" height="128" rx="8" fill="white"/>
</clipPath>
</defs>
</svg>
